<?xml version="1.0" encoding="UTF-8" standalone="no"?>
<!DOCTYPE svg PUBLIC "-//W3C//DTD SVG 1.1//EN" "http://www.w3.org/Graphics/SVG/1.1/DTD/svg11.dtd">
<svg width="100%" height="100%" viewBox="0 0 624 622" version="1.1" xmlns="http://www.w3.org/2000/svg" xmlns:xlink="http://www.w3.org/1999/xlink" xml:space="preserve" xmlns:serif="http://www.serif.com/" style="fill-rule:evenodd;clip-rule:evenodd;stroke-linejoin:round;stroke-miterlimit:2;">
    <g transform="matrix(1,0,0,1,-1240.83,-38.076)">
        <g>
            <g transform="matrix(-0.698524,-0.715586,0.715586,-0.698524,1587.4,1067.48)">
                <g opacity="0.6">
                    <g id="Circle-LG-1" serif:id="Circle LG 1" transform="matrix(8.63391,0,0,8.63391,-2773.44,-920.594)">
                        <path d="M383.771,161.487C372.142,161.487 362.682,170.948 362.682,182.577C362.682,194.205 372.142,203.666 383.771,203.666C395.398,203.666 404.859,194.205 404.859,182.577C404.859,170.948 395.398,161.487 383.771,161.487ZM383.771,204.005C371.954,204.005 362.342,194.393 362.342,182.577C362.342,170.76 371.954,161.147 383.771,161.147C395.587,161.147 405.199,170.76 405.199,182.577C405.199,194.393 395.587,204.005 383.771,204.005Z" style="fill:rgb(23,12,58);fill-rule:nonzero;"/>
                    </g>
                    <g id="Circle-LG" serif:id="Circle LG" transform="matrix(8.63391,0,0,8.63391,-2773.44,-920.594)">
                        <path d="M369.176,134.674C357.547,134.674 348.087,144.135 348.087,155.763C348.087,167.391 357.547,176.852 369.176,176.852C380.804,176.852 390.265,167.391 390.265,155.763C390.265,144.135 380.804,134.674 369.176,134.674ZM369.176,177.192C357.359,177.192 347.747,167.58 347.747,155.763C347.747,143.947 357.359,134.334 369.176,134.334C380.992,134.334 390.604,143.947 390.604,155.763C390.604,167.58 380.992,177.192 369.176,177.192Z" style="fill:rgb(23,12,58);fill-rule:nonzero;"/>
                    </g>
                    <g id="Circle-LG1" serif:id="Circle LG" transform="matrix(8.63391,0,0,8.63391,-2773.44,-920.594)">
                        <path d="M398.365,134.674C386.736,134.674 377.276,144.135 377.276,155.763C377.276,167.391 386.736,176.852 398.365,176.852C409.993,176.852 419.454,167.391 419.454,155.763C419.454,144.135 409.993,134.674 398.365,134.674ZM398.365,177.192C386.549,177.192 376.937,167.58 376.937,155.763C376.937,143.947 386.549,134.334 398.365,134.334C410.182,134.334 419.794,143.947 419.794,155.763C419.794,167.58 410.182,177.192 398.365,177.192Z" style="fill:rgb(23,12,58);fill-rule:nonzero;"/>
                    </g>
                    <g id="Circle-MD-1" serif:id="Circle MD 1" transform="matrix(8.95656,0,5.34125e-32,8.64563,-2897.4,-923.252)">
                        <path d="M383.785,174.272C375.969,174.272 369.61,180.865 369.61,188.969C369.61,197.073 375.969,203.666 383.785,203.666C391.601,203.666 397.96,197.073 397.96,188.969C397.96,180.865 391.601,174.272 383.785,174.272ZM383.785,204.005C375.781,204.005 369.271,197.26 369.271,188.969C369.271,180.677 375.781,173.932 383.785,173.932C391.788,173.932 398.3,180.677 398.3,188.969C398.3,197.26 391.788,204.005 383.785,204.005Z" style="fill:rgb(23,12,58);fill-rule:nonzero;"/>
                    </g>
                    <g id="Sphere-SM" serif:id="Sphere SM" transform="matrix(7.80914,0,0,7.81245,-2457.03,-792.958)">
                        <path d="M384.938,192.38C384.938,193.016 384.421,193.532 383.785,193.532C383.148,193.532 382.633,193.016 382.633,192.38C382.633,191.744 383.148,191.228 383.785,191.228C384.421,191.228 384.938,191.744 384.938,192.38Z" style="fill:rgb(23,12,58);fill-rule:nonzero;"/>
                    </g>
                    <g id="Circle-MD-3" serif:id="Circle MD 3" transform="matrix(8.75523,0,2.76463e-17,8.45165,-2818.46,-890.63)">
                        <path d="M362.828,138.797C355.048,138.797 348.719,145.36 348.719,153.425C348.719,161.491 355.048,168.053 362.828,168.053C370.607,168.053 376.937,161.491 376.937,153.425C376.937,145.36 370.607,138.797 362.828,138.797ZM362.828,168.393C354.86,168.393 348.379,161.678 348.379,153.425C348.379,145.172 354.86,138.458 362.828,138.458C370.795,138.458 377.276,145.172 377.276,153.425C377.276,161.678 370.795,168.393 362.828,168.393Z" style="fill:rgb(23,12,58);fill-rule:nonzero;"/>
                    </g>
                    <g id="Sphere-SM1" serif:id="Sphere SM" transform="matrix(7.80914,-8.66988e-16,8.67356e-16,7.81245,-2275.72,-1105.76)">
                        <path d="M384.938,192.38C384.938,193.016 384.421,193.532 383.785,193.532C383.148,193.532 382.633,193.016 382.633,192.38C382.633,191.744 383.148,191.228 383.785,191.228C384.421,191.228 384.938,191.744 384.938,192.38Z" style="fill:rgb(23,12,58);fill-rule:nonzero;"/>
                    </g>
                    <g id="Circle-MD-2" serif:id="Circle MD 2" transform="matrix(8.72093,-9.68218e-16,9.34612e-16,8.41824,-2808.79,-888.469)">
                        <path d="M404.713,138.797C396.934,138.797 390.604,145.36 390.604,153.425C390.604,161.491 396.934,168.053 404.713,168.053C412.492,168.053 418.821,161.491 418.821,153.425C418.821,145.36 412.492,138.797 404.713,138.797ZM404.713,168.393C396.746,168.393 390.265,161.678 390.265,153.425C390.265,145.172 396.746,138.458 404.713,138.458C412.68,138.458 419.161,145.172 419.161,153.425C419.161,161.678 412.68,168.393 404.713,168.393Z" style="fill:rgb(23,12,58);fill-rule:nonzero;"/>
                    </g>
                    <g id="Triangle-SM" serif:id="Triangle SM" transform="matrix(8.63391,0,0,8.63391,-2773.44,-920.594)">
                        <path d="M366.676,155.401L383.746,184.556L400.232,155.401L366.676,155.401ZM383.751,185.238L366.082,155.061L400.815,155.061L383.751,185.238Z" style="fill:rgb(23,12,58);fill-rule:nonzero;"/>
                    </g>
                    <g id="Circle-SM" serif:id="Circle SM" transform="matrix(6.01404,0,0,6.01404,-1768.01,-385.756)">
                        <path d="M383.771,198.837C382.667,198.837 381.77,199.735 381.77,200.838C381.77,201.941 382.667,202.838 383.771,202.838C384.873,202.838 385.771,201.941 385.771,200.838C385.771,199.735 384.873,198.837 383.771,198.837ZM383.771,203.831C382.12,203.831 380.777,202.488 380.777,200.838C380.777,199.188 382.12,197.845 383.771,197.845C385.421,197.845 386.763,199.188 386.763,200.838C386.763,202.488 385.421,203.831 383.771,203.831Z" style="fill:rgb(23,12,58);fill-rule:nonzero;"/>
                    </g>
                    <g id="Circle-SM1" serif:id="Circle SM" transform="matrix(6.01404,1.77636e-15,-1.77636e-15,6.01404,-2041.27,-861.094)">
                        <path d="M383.771,198.837C382.667,198.837 381.77,199.735 381.77,200.838C381.77,201.941 382.667,202.838 383.771,202.838C384.873,202.838 385.771,201.941 385.771,200.838C385.771,199.735 384.873,198.837 383.771,198.837ZM383.771,203.831C382.12,203.831 380.777,202.488 380.777,200.838C380.777,199.188 382.12,197.845 383.771,197.845C385.421,197.845 386.763,199.188 386.763,200.838C386.763,202.488 385.421,203.831 383.771,203.831Z" style="fill:rgb(23,12,58);fill-rule:nonzero;"/>
                    </g>
                    <g id="Circle-SM2" serif:id="Circle SM" transform="matrix(6.01404,0,0,6.01404,-1498.33,-866.549)">
                        <path d="M383.771,198.837C382.667,198.837 381.77,199.735 381.77,200.838C381.77,201.941 382.667,202.838 383.771,202.838C384.873,202.838 385.771,201.941 385.771,200.838C385.771,199.735 384.873,198.837 383.771,198.837ZM383.771,203.831C382.12,203.831 380.777,202.488 380.777,200.838C380.777,199.188 382.12,197.845 383.771,197.845C385.421,197.845 386.763,199.188 386.763,200.838C386.763,202.488 385.421,203.831 383.771,203.831Z" style="fill:rgb(23,12,58);fill-rule:nonzero;"/>
                    </g>
                    <g id="Sphere-Central" serif:id="Sphere Central" transform="matrix(8.63391,0,0,8.63391,-2773.44,-920.594)">
                        <path d="M385.21,165.239C385.21,166.034 384.565,166.678 383.771,166.678C382.976,166.678 382.331,166.034 382.331,165.239C382.331,164.444 382.976,163.8 383.771,163.8C384.565,163.8 385.21,164.444 385.21,165.239Z" style="fill:rgb(23,12,58);fill-rule:nonzero;"/>
                    </g>
                    <g id="Sphere-SM2" serif:id="Sphere SM" transform="matrix(7.81255,-3.03578e-15,1.73471e-15,7.81245,-2456.35,-782.003)">
                        <path d="M360.749,151.13C360.749,151.766 360.233,152.282 359.598,152.282C358.961,152.282 358.445,151.766 358.445,151.13C358.445,150.494 358.961,149.978 359.598,149.978C360.233,149.978 360.749,150.494 360.749,151.13Z" style="fill:rgb(23,12,58);fill-rule:nonzero;"/>
                    </g>
                    <g id="Line" transform="matrix(-5.77252,-9.23797,5.58142,-3.48766,1902.09,4588.21)">
                        <rect x="383.601" y="153.377" width="0.339" height="50.458" style="fill:rgb(23,12,58);fill-rule:nonzero;"/>
                    </g>
                    <g id="Line1" serif:id="Line" transform="matrix(10.8932,0,0,6.58149,-3640.49,-502.274)">
                        <rect x="383.601" y="153.377" width="0.339" height="50.458" style="fill:rgb(23,12,58);fill-rule:nonzero;"/>
                    </g>
                    <g id="Line2" serif:id="Line" transform="matrix(5.5451,-9.37624,5.66497,3.35025,-2743.7,3423.14)">
                        <rect x="383.601" y="153.377" width="0.339" height="50.458" style="fill:rgb(23,12,58);fill-rule:nonzero;"/>
                    </g>
                </g>
            </g>
            <g transform="matrix(-0.698524,-0.715586,0.715586,-0.698524,1587.4,1067.48)">
                <g opacity="0.6">
                    <g id="Circle-LG-11" serif:id="Circle LG 1" transform="matrix(8.63391,0,0,8.63391,-2773.44,-920.594)">
                        <path d="M383.771,161.487C372.142,161.487 362.682,170.948 362.682,182.577C362.682,194.205 372.142,203.666 383.771,203.666C395.398,203.666 404.859,194.205 404.859,182.577C404.859,170.948 395.398,161.487 383.771,161.487ZM383.771,204.005C371.954,204.005 362.342,194.393 362.342,182.577C362.342,170.76 371.954,161.147 383.771,161.147C395.587,161.147 405.199,170.76 405.199,182.577C405.199,194.393 395.587,204.005 383.771,204.005Z" style="fill:rgb(23,12,58);fill-rule:nonzero;"/>
                    </g>
                    <g id="Circle-LG2" serif:id="Circle LG" transform="matrix(8.63391,0,0,8.63391,-2773.44,-920.594)">
                        <path d="M369.176,134.674C357.547,134.674 348.087,144.135 348.087,155.763C348.087,167.391 357.547,176.852 369.176,176.852C380.804,176.852 390.265,167.391 390.265,155.763C390.265,144.135 380.804,134.674 369.176,134.674ZM369.176,177.192C357.359,177.192 347.747,167.58 347.747,155.763C347.747,143.947 357.359,134.334 369.176,134.334C380.992,134.334 390.604,143.947 390.604,155.763C390.604,167.58 380.992,177.192 369.176,177.192Z" style="fill:rgb(23,12,58);fill-rule:nonzero;"/>
                    </g>
                    <g id="Circle-LG3" serif:id="Circle LG" transform="matrix(8.63391,0,0,8.63391,-2773.44,-920.594)">
                        <path d="M398.365,134.674C386.736,134.674 377.276,144.135 377.276,155.763C377.276,167.391 386.736,176.852 398.365,176.852C409.993,176.852 419.454,167.391 419.454,155.763C419.454,144.135 409.993,134.674 398.365,134.674ZM398.365,177.192C386.549,177.192 376.937,167.58 376.937,155.763C376.937,143.947 386.549,134.334 398.365,134.334C410.182,134.334 419.794,143.947 419.794,155.763C419.794,167.58 410.182,177.192 398.365,177.192Z" style="fill:rgb(23,12,58);fill-rule:nonzero;"/>
                    </g>
                    <g id="Circle-MD-11" serif:id="Circle MD 1" transform="matrix(8.95656,0,5.34125e-32,8.64563,-2897.4,-923.252)">
                        <path d="M383.785,174.272C375.969,174.272 369.61,180.865 369.61,188.969C369.61,197.073 375.969,203.666 383.785,203.666C391.601,203.666 397.96,197.073 397.96,188.969C397.96,180.865 391.601,174.272 383.785,174.272ZM383.785,204.005C375.781,204.005 369.271,197.26 369.271,188.969C369.271,180.677 375.781,173.932 383.785,173.932C391.788,173.932 398.3,180.677 398.3,188.969C398.3,197.26 391.788,204.005 383.785,204.005Z" style="fill:rgb(23,12,58);fill-rule:nonzero;"/>
                    </g>
                    <g id="Sphere-SM3" serif:id="Sphere SM" transform="matrix(7.80914,0,0,7.81245,-2457.03,-792.958)">
                        <path d="M384.938,192.38C384.938,193.016 384.421,193.532 383.785,193.532C383.148,193.532 382.633,193.016 382.633,192.38C382.633,191.744 383.148,191.228 383.785,191.228C384.421,191.228 384.938,191.744 384.938,192.38Z" style="fill:rgb(23,12,58);fill-rule:nonzero;"/>
                    </g>
                    <g id="Circle-MD-31" serif:id="Circle MD 3" transform="matrix(8.75523,0,2.76463e-17,8.45165,-2818.46,-890.63)">
                        <path d="M362.828,138.797C355.048,138.797 348.719,145.36 348.719,153.425C348.719,161.491 355.048,168.053 362.828,168.053C370.607,168.053 376.937,161.491 376.937,153.425C376.937,145.36 370.607,138.797 362.828,138.797ZM362.828,168.393C354.86,168.393 348.379,161.678 348.379,153.425C348.379,145.172 354.86,138.458 362.828,138.458C370.795,138.458 377.276,145.172 377.276,153.425C377.276,161.678 370.795,168.393 362.828,168.393Z" style="fill:rgb(23,12,58);fill-rule:nonzero;"/>
                    </g>
                    <g id="Sphere-SM4" serif:id="Sphere SM" transform="matrix(7.80914,-8.66988e-16,8.67356e-16,7.81245,-2275.72,-1105.76)">
                        <path d="M384.938,192.38C384.938,193.016 384.421,193.532 383.785,193.532C383.148,193.532 382.633,193.016 382.633,192.38C382.633,191.744 383.148,191.228 383.785,191.228C384.421,191.228 384.938,191.744 384.938,192.38Z" style="fill:rgb(23,12,58);fill-rule:nonzero;"/>
                    </g>
                    <g id="Circle-MD-21" serif:id="Circle MD 2" transform="matrix(8.72093,-9.68218e-16,9.34612e-16,8.41824,-2808.79,-888.469)">
                        <path d="M404.713,138.797C396.934,138.797 390.604,145.36 390.604,153.425C390.604,161.491 396.934,168.053 404.713,168.053C412.492,168.053 418.821,161.491 418.821,153.425C418.821,145.36 412.492,138.797 404.713,138.797ZM404.713,168.393C396.746,168.393 390.265,161.678 390.265,153.425C390.265,145.172 396.746,138.458 404.713,138.458C412.68,138.458 419.161,145.172 419.161,153.425C419.161,161.678 412.68,168.393 404.713,168.393Z" style="fill:rgb(23,12,58);fill-rule:nonzero;"/>
                    </g>
                    <g id="Triangle-SM1" serif:id="Triangle SM" transform="matrix(8.63391,0,0,8.63391,-2773.44,-920.594)">
                        <path d="M366.676,155.401L383.746,184.556L400.232,155.401L366.676,155.401ZM383.751,185.238L366.082,155.061L400.815,155.061L383.751,185.238Z" style="fill:rgb(23,12,58);fill-rule:nonzero;"/>
                    </g>
                    <g id="Circle-SM3" serif:id="Circle SM" transform="matrix(6.01404,0,0,6.01404,-1768.01,-385.756)">
                        <path d="M383.771,198.837C382.667,198.837 381.77,199.735 381.77,200.838C381.77,201.941 382.667,202.838 383.771,202.838C384.873,202.838 385.771,201.941 385.771,200.838C385.771,199.735 384.873,198.837 383.771,198.837ZM383.771,203.831C382.12,203.831 380.777,202.488 380.777,200.838C380.777,199.188 382.12,197.845 383.771,197.845C385.421,197.845 386.763,199.188 386.763,200.838C386.763,202.488 385.421,203.831 383.771,203.831Z" style="fill:rgb(23,12,58);fill-rule:nonzero;"/>
                    </g>
                    <g id="Circle-SM4" serif:id="Circle SM" transform="matrix(6.01404,1.77636e-15,-1.77636e-15,6.01404,-2041.27,-861.094)">
                        <path d="M383.771,198.837C382.667,198.837 381.77,199.735 381.77,200.838C381.77,201.941 382.667,202.838 383.771,202.838C384.873,202.838 385.771,201.941 385.771,200.838C385.771,199.735 384.873,198.837 383.771,198.837ZM383.771,203.831C382.12,203.831 380.777,202.488 380.777,200.838C380.777,199.188 382.12,197.845 383.771,197.845C385.421,197.845 386.763,199.188 386.763,200.838C386.763,202.488 385.421,203.831 383.771,203.831Z" style="fill:rgb(23,12,58);fill-rule:nonzero;"/>
                    </g>
                    <g id="Circle-SM5" serif:id="Circle SM" transform="matrix(6.01404,0,0,6.01404,-1498.33,-866.549)">
                        <path d="M383.771,198.837C382.667,198.837 381.77,199.735 381.77,200.838C381.77,201.941 382.667,202.838 383.771,202.838C384.873,202.838 385.771,201.941 385.771,200.838C385.771,199.735 384.873,198.837 383.771,198.837ZM383.771,203.831C382.12,203.831 380.777,202.488 380.777,200.838C380.777,199.188 382.12,197.845 383.771,197.845C385.421,197.845 386.763,199.188 386.763,200.838C386.763,202.488 385.421,203.831 383.771,203.831Z" style="fill:rgb(23,12,58);fill-rule:nonzero;"/>
                    </g>
                    <g id="Sphere-Central1" serif:id="Sphere Central" transform="matrix(8.63391,0,0,8.63391,-2773.44,-920.594)">
                        <path d="M385.21,165.239C385.21,166.034 384.565,166.678 383.771,166.678C382.976,166.678 382.331,166.034 382.331,165.239C382.331,164.444 382.976,163.8 383.771,163.8C384.565,163.8 385.21,164.444 385.21,165.239Z" style="fill:rgb(23,12,58);fill-rule:nonzero;"/>
                    </g>
                    <g id="Sphere-SM5" serif:id="Sphere SM" transform="matrix(7.81255,-3.03578e-15,1.73471e-15,7.81245,-2456.35,-782.003)">
                        <path d="M360.749,151.13C360.749,151.766 360.233,152.282 359.598,152.282C358.961,152.282 358.445,151.766 358.445,151.13C358.445,150.494 358.961,149.978 359.598,149.978C360.233,149.978 360.749,150.494 360.749,151.13Z" style="fill:rgb(23,12,58);fill-rule:nonzero;"/>
                    </g>
                    <g id="Line3" serif:id="Line" transform="matrix(-5.77252,-9.23797,5.58142,-3.48766,1902.09,4588.21)">
                        <rect x="383.601" y="153.377" width="0.339" height="50.458" style="fill:rgb(23,12,58);fill-rule:nonzero;"/>
                    </g>
                    <g id="Line4" serif:id="Line" transform="matrix(10.8932,0,0,6.58149,-3640.49,-502.274)">
                        <rect x="383.601" y="153.377" width="0.339" height="50.458" style="fill:rgb(23,12,58);fill-rule:nonzero;"/>
                    </g>
                    <g id="Line5" serif:id="Line" transform="matrix(5.5451,-9.37624,5.66497,3.35025,-2743.7,3423.14)">
                        <rect x="383.601" y="153.377" width="0.339" height="50.458" style="fill:rgb(23,12,58);fill-rule:nonzero;"/>
                    </g>
                </g>
            </g>
            <g transform="matrix(-0.698524,-0.715586,0.715586,-0.698524,1587.4,1067.48)">
                <g opacity="0.6">
                    <g id="Circle-LG-12" serif:id="Circle LG 1" transform="matrix(8.63391,0,0,8.63391,-2773.44,-920.594)">
                        <path d="M383.771,161.487C372.142,161.487 362.682,170.948 362.682,182.577C362.682,194.205 372.142,203.666 383.771,203.666C395.398,203.666 404.859,194.205 404.859,182.577C404.859,170.948 395.398,161.487 383.771,161.487ZM383.771,204.005C371.954,204.005 362.342,194.393 362.342,182.577C362.342,170.76 371.954,161.147 383.771,161.147C395.587,161.147 405.199,170.76 405.199,182.577C405.199,194.393 395.587,204.005 383.771,204.005Z" style="fill:rgb(23,12,58);fill-rule:nonzero;"/>
                    </g>
                    <g id="Circle-LG4" serif:id="Circle LG" transform="matrix(8.63391,0,0,8.63391,-2773.44,-920.594)">
                        <path d="M369.176,134.674C357.547,134.674 348.087,144.135 348.087,155.763C348.087,167.391 357.547,176.852 369.176,176.852C380.804,176.852 390.265,167.391 390.265,155.763C390.265,144.135 380.804,134.674 369.176,134.674ZM369.176,177.192C357.359,177.192 347.747,167.58 347.747,155.763C347.747,143.947 357.359,134.334 369.176,134.334C380.992,134.334 390.604,143.947 390.604,155.763C390.604,167.58 380.992,177.192 369.176,177.192Z" style="fill:rgb(23,12,58);fill-rule:nonzero;"/>
                    </g>
                    <g id="Circle-LG5" serif:id="Circle LG" transform="matrix(8.63391,0,0,8.63391,-2773.44,-920.594)">
                        <path d="M398.365,134.674C386.736,134.674 377.276,144.135 377.276,155.763C377.276,167.391 386.736,176.852 398.365,176.852C409.993,176.852 419.454,167.391 419.454,155.763C419.454,144.135 409.993,134.674 398.365,134.674ZM398.365,177.192C386.549,177.192 376.937,167.58 376.937,155.763C376.937,143.947 386.549,134.334 398.365,134.334C410.182,134.334 419.794,143.947 419.794,155.763C419.794,167.58 410.182,177.192 398.365,177.192Z" style="fill:rgb(23,12,58);fill-rule:nonzero;"/>
                    </g>
                    <g id="Circle-MD-12" serif:id="Circle MD 1" transform="matrix(8.95656,0,5.34125e-32,8.64563,-2897.4,-923.252)">
                        <path d="M383.785,174.272C375.969,174.272 369.61,180.865 369.61,188.969C369.61,197.073 375.969,203.666 383.785,203.666C391.601,203.666 397.96,197.073 397.96,188.969C397.96,180.865 391.601,174.272 383.785,174.272ZM383.785,204.005C375.781,204.005 369.271,197.26 369.271,188.969C369.271,180.677 375.781,173.932 383.785,173.932C391.788,173.932 398.3,180.677 398.3,188.969C398.3,197.26 391.788,204.005 383.785,204.005Z" style="fill:rgb(23,12,58);fill-rule:nonzero;"/>
                    </g>
                    <g id="Sphere-SM6" serif:id="Sphere SM" transform="matrix(7.80914,0,0,7.81245,-2457.03,-792.958)">
                        <path d="M384.938,192.38C384.938,193.016 384.421,193.532 383.785,193.532C383.148,193.532 382.633,193.016 382.633,192.38C382.633,191.744 383.148,191.228 383.785,191.228C384.421,191.228 384.938,191.744 384.938,192.38Z" style="fill:rgb(23,12,58);fill-rule:nonzero;"/>
                    </g>
                    <g id="Circle-MD-32" serif:id="Circle MD 3" transform="matrix(8.75523,0,2.76463e-17,8.45165,-2818.46,-890.63)">
                        <path d="M362.828,138.797C355.048,138.797 348.719,145.36 348.719,153.425C348.719,161.491 355.048,168.053 362.828,168.053C370.607,168.053 376.937,161.491 376.937,153.425C376.937,145.36 370.607,138.797 362.828,138.797ZM362.828,168.393C354.86,168.393 348.379,161.678 348.379,153.425C348.379,145.172 354.86,138.458 362.828,138.458C370.795,138.458 377.276,145.172 377.276,153.425C377.276,161.678 370.795,168.393 362.828,168.393Z" style="fill:rgb(23,12,58);fill-rule:nonzero;"/>
                    </g>
                    <g id="Sphere-SM7" serif:id="Sphere SM" transform="matrix(7.80914,-8.66988e-16,8.67356e-16,7.81245,-2275.72,-1105.76)">
                        <path d="M384.938,192.38C384.938,193.016 384.421,193.532 383.785,193.532C383.148,193.532 382.633,193.016 382.633,192.38C382.633,191.744 383.148,191.228 383.785,191.228C384.421,191.228 384.938,191.744 384.938,192.38Z" style="fill:rgb(23,12,58);fill-rule:nonzero;"/>
                    </g>
                    <g id="Circle-MD-22" serif:id="Circle MD 2" transform="matrix(8.72093,-9.68218e-16,9.34612e-16,8.41824,-2808.79,-888.469)">
                        <path d="M404.713,138.797C396.934,138.797 390.604,145.36 390.604,153.425C390.604,161.491 396.934,168.053 404.713,168.053C412.492,168.053 418.821,161.491 418.821,153.425C418.821,145.36 412.492,138.797 404.713,138.797ZM404.713,168.393C396.746,168.393 390.265,161.678 390.265,153.425C390.265,145.172 396.746,138.458 404.713,138.458C412.68,138.458 419.161,145.172 419.161,153.425C419.161,161.678 412.68,168.393 404.713,168.393Z" style="fill:rgb(23,12,58);fill-rule:nonzero;"/>
                    </g>
                    <g id="Triangle-SM2" serif:id="Triangle SM" transform="matrix(8.63391,0,0,8.63391,-2773.44,-920.594)">
                        <path d="M366.676,155.401L383.746,184.556L400.232,155.401L366.676,155.401ZM383.751,185.238L366.082,155.061L400.815,155.061L383.751,185.238Z" style="fill:rgb(23,12,58);fill-rule:nonzero;"/>
                    </g>
                    <g id="Circle-SM6" serif:id="Circle SM" transform="matrix(6.01404,0,0,6.01404,-1768.01,-385.756)">
                        <path d="M383.771,198.837C382.667,198.837 381.77,199.735 381.77,200.838C381.77,201.941 382.667,202.838 383.771,202.838C384.873,202.838 385.771,201.941 385.771,200.838C385.771,199.735 384.873,198.837 383.771,198.837ZM383.771,203.831C382.12,203.831 380.777,202.488 380.777,200.838C380.777,199.188 382.12,197.845 383.771,197.845C385.421,197.845 386.763,199.188 386.763,200.838C386.763,202.488 385.421,203.831 383.771,203.831Z" style="fill:rgb(23,12,58);fill-rule:nonzero;"/>
                    </g>
                    <g id="Circle-SM7" serif:id="Circle SM" transform="matrix(6.01404,1.77636e-15,-1.77636e-15,6.01404,-2041.27,-861.094)">
                        <path d="M383.771,198.837C382.667,198.837 381.77,199.735 381.77,200.838C381.77,201.941 382.667,202.838 383.771,202.838C384.873,202.838 385.771,201.941 385.771,200.838C385.771,199.735 384.873,198.837 383.771,198.837ZM383.771,203.831C382.12,203.831 380.777,202.488 380.777,200.838C380.777,199.188 382.12,197.845 383.771,197.845C385.421,197.845 386.763,199.188 386.763,200.838C386.763,202.488 385.421,203.831 383.771,203.831Z" style="fill:rgb(23,12,58);fill-rule:nonzero;"/>
                    </g>
                    <g id="Circle-SM8" serif:id="Circle SM" transform="matrix(6.01404,0,0,6.01404,-1498.33,-866.549)">
                        <path d="M383.771,198.837C382.667,198.837 381.77,199.735 381.77,200.838C381.77,201.941 382.667,202.838 383.771,202.838C384.873,202.838 385.771,201.941 385.771,200.838C385.771,199.735 384.873,198.837 383.771,198.837ZM383.771,203.831C382.12,203.831 380.777,202.488 380.777,200.838C380.777,199.188 382.12,197.845 383.771,197.845C385.421,197.845 386.763,199.188 386.763,200.838C386.763,202.488 385.421,203.831 383.771,203.831Z" style="fill:rgb(23,12,58);fill-rule:nonzero;"/>
                    </g>
                    <g id="Sphere-Central2" serif:id="Sphere Central" transform="matrix(8.63391,0,0,8.63391,-2773.44,-920.594)">
                        <path d="M385.21,165.239C385.21,166.034 384.565,166.678 383.771,166.678C382.976,166.678 382.331,166.034 382.331,165.239C382.331,164.444 382.976,163.8 383.771,163.8C384.565,163.8 385.21,164.444 385.21,165.239Z" style="fill:rgb(23,12,58);fill-rule:nonzero;"/>
                    </g>
                    <g id="Sphere-SM8" serif:id="Sphere SM" transform="matrix(7.81255,-3.03578e-15,1.73471e-15,7.81245,-2456.35,-782.003)">
                        <path d="M360.749,151.13C360.749,151.766 360.233,152.282 359.598,152.282C358.961,152.282 358.445,151.766 358.445,151.13C358.445,150.494 358.961,149.978 359.598,149.978C360.233,149.978 360.749,150.494 360.749,151.13Z" style="fill:rgb(23,12,58);fill-rule:nonzero;"/>
                    </g>
                    <g id="Line6" serif:id="Line" transform="matrix(-5.77252,-9.23797,5.58142,-3.48766,1902.09,4588.21)">
                        <rect x="383.601" y="153.377" width="0.339" height="50.458" style="fill:rgb(23,12,58);fill-rule:nonzero;"/>
                    </g>
                    <g id="Line7" serif:id="Line" transform="matrix(10.8932,0,0,6.58149,-3640.49,-502.274)">
                        <rect x="383.601" y="153.377" width="0.339" height="50.458" style="fill:rgb(23,12,58);fill-rule:nonzero;"/>
                    </g>
                    <g id="Line8" serif:id="Line" transform="matrix(5.5451,-9.37624,5.66497,3.35025,-2743.7,3423.14)">
                        <rect x="383.601" y="153.377" width="0.339" height="50.458" style="fill:rgb(23,12,58);fill-rule:nonzero;"/>
                    </g>
                </g>
            </g>
        </g>
    </g>
</svg>
